<svg width="18" height="22" viewBox="0 0 18 22" fill="none" xmlns="http://www.w3.org/2000/svg">
<path fill-rule="evenodd" clip-rule="evenodd" d="M13.4999 3.47819V3.70498C14.4546 3.79237 15.4014 3.90731 16.3395 4.04898C16.6869 4.10143 17.033 4.15755 17.3779 4.2173C17.786 4.28799 18.0596 4.67617 17.9889 5.0843C17.9182 5.49244 17.53 5.76598 17.1219 5.69529C17.0523 5.68323 16.9826 5.67132 16.9129 5.65957L15.9075 18.7301C15.7872 20.2931 14.4839 21.5 12.9163 21.5H5.08345C3.51584 21.5 2.21252 20.2931 2.09229 18.7301L1.08686 5.65957C1.01715 5.67132 0.947494 5.68323 0.87789 5.69529C0.469754 5.76598 0.0815824 5.49244 0.0108839 5.0843C-0.0598146 4.67617 0.213732 4.28799 0.621868 4.2173C0.966766 4.15755 1.3129 4.10143 1.66024 4.04898C2.59834 3.90731 3.54515 3.79237 4.49988 3.70498V3.47819C4.49988 1.91371 5.71241 0.578183 7.31531 0.526907C7.87467 0.509014 8.43623 0.5 8.99988 0.5C9.56352 0.5 10.1251 0.509014 10.6844 0.526907C12.2873 0.578183 13.4999 1.91371 13.4999 3.47819ZM7.36327 2.02614C7.90665 2.00876 8.45223 2 8.99988 2C9.54753 2 10.0931 2.00876 10.6365 2.02614C11.3911 2.05028 11.9999 2.68393 11.9999 3.47819V3.59082C11.0075 3.53056 10.0072 3.5 8.99988 3.5C7.99254 3.5 6.99224 3.53056 5.99988 3.59082V3.47819C5.99988 2.68393 6.60866 2.05028 7.36327 2.02614ZM7.00848 7.97118C6.99256 7.55727 6.64412 7.23463 6.23021 7.25055C5.8163 7.26647 5.49367 7.61492 5.50959 8.02882L5.85574 17.0288C5.87166 17.4427 6.2201 17.7654 6.63401 17.7494C7.04792 17.7335 7.37055 17.3851 7.35463 16.9712L7.00848 7.97118ZM12.4892 8.02882C12.5052 7.61492 12.1825 7.26647 11.7686 7.25055C11.3547 7.23463 11.0063 7.55727 10.9904 7.97118L10.6442 16.9712C10.6283 17.3851 10.9509 17.7335 11.3648 17.7494C11.7787 17.7654 12.1272 17.4427 12.1431 17.0288L12.4892 8.02882Z" fill="#1E293B"/>
</svg>
