<svg width="21" height="22" viewBox="0 0 21 22" fill="none" xmlns="http://www.w3.org/2000/svg">
<path d="M20.2309 1.64384C19.2058 0.618718 17.5437 0.618718 16.5186 1.64384L15.3615 2.80099L19.0738 6.5133L20.2309 5.35616C21.256 4.33103 21.256 2.66897 20.2309 1.64384Z" fill="#0F172A"/>
<path d="M18.0131 7.57396L14.3008 3.86165L5.89995 12.2625C5.28316 12.8793 4.82977 13.64 4.58075 14.476L3.78097 17.1609C3.70235 17.4248 3.7747 17.7106 3.96943 17.9053C4.16416 18.1 4.44994 18.1724 4.71387 18.0938L7.39876 17.294C8.23473 17.045 8.99548 16.5916 9.61227 15.9748L18.0131 7.57396Z" fill="#0F172A"/>
<path d="M3.74976 4.62499C2.0929 4.62499 0.749756 5.96814 0.749756 7.62499V18.125C0.749756 19.7818 2.0929 21.125 3.74976 21.125H14.2498C15.9066 21.125 17.2498 19.7818 17.2498 18.125V12.875C17.2498 12.4608 16.914 12.125 16.4998 12.125C16.0855 12.125 15.7498 12.4608 15.7498 12.875V18.125C15.7498 18.9534 15.0782 19.625 14.2498 19.625H3.74976C2.92133 19.625 2.24976 18.9534 2.24976 18.125V7.62499C2.24976 6.79656 2.92133 6.12499 3.74976 6.12499H8.99976C9.41397 6.12499 9.74976 5.78921 9.74976 5.37499C9.74976 4.96078 9.41397 4.62499 8.99976 4.62499H3.74976Z" fill="#0F172A"/>
</svg>
